<svg xmlns="http://www.w3.org/2000/svg" viewBox="0 0 64 64">
  <defs>
    <linearGradient id="bg" x1="0%" y1="0%" x2="100%" y2="100%">
      <stop offset="0%" stop-color="#fff4e7" />
      <stop offset="100%" stop-color="#e8f3eb" />
    </linearGradient>
  </defs>
  <rect width="64" height="64" rx="18" fill="url(#bg)" />
  <path d="M18 25c0-5.5 4.5-10 10-10h8c5.5 0 10 4.5 10 10v7c0 8.8-7.2 16-16 16S14 40.8 14 32v-1h4v1c0 6.6 5.4 12 12 12s12-5.4 12-12v-7c0-3.3-2.7-6-6-6h-8c-3.3 0-6 2.7-6 6v4h-4v-4Z" fill="#d97745"/>
  <path d="M24 31h16a4 4 0 0 1 4 4c0 5.5-4.5 10-10 10h-4c-5.5 0-10-4.5-10-10a4 4 0 0 1 4-4Z" fill="#5c7c53"/>
  <circle cx="27" cy="25" r="3" fill="#7d5a76"/>
</svg>
